<svg width="16" height="16" viewBox="0 0 16 16" fill="none" xmlns="http://www.w3.org/2000/svg">
<path d="M14.3731 7.16L13.4664 6.10667C13.2931 5.90667 13.1531 5.53333 13.1531 5.26667V4.13333C13.1531 3.42667 12.5731 2.84666 11.8664 2.84666H10.7331C10.4731 2.84666 10.0931 2.70667 9.89309 2.53333L8.83976 1.62667C8.37976 1.23333 7.62643 1.23333 7.15976 1.62667L6.11309 2.54C5.91309 2.70667 5.53309 2.84666 5.27309 2.84666H4.11976C3.41309 2.84666 2.83309 3.42667 2.83309 4.13333V5.27333C2.83309 5.53333 2.69309 5.90667 2.52643 6.10667L1.62643 7.16667C1.23976 7.62667 1.23976 8.37333 1.62643 8.83333L2.52643 9.89333C2.69309 10.0933 2.83309 10.4667 2.83309 10.7267V11.8667C2.83309 12.5733 3.41309 13.1533 4.11976 13.1533H5.27309C5.53309 13.1533 5.91309 13.2933 6.11309 13.4667L7.16643 14.3733C7.62643 14.7667 8.37976 14.7667 8.84643 14.3733L9.89976 13.4667C10.0998 13.2933 10.4731 13.1533 10.7398 13.1533H11.8731C12.5798 13.1533 13.1598 12.5733 13.1598 11.8667V10.7333C13.1598 10.4733 13.2998 10.0933 13.4731 9.89333L14.3798 8.84C14.7664 8.38 14.7664 7.62 14.3731 7.16ZM10.7731 6.74L7.55309 9.96C7.45976 10.0533 7.33309 10.1067 7.19976 10.1067C7.06643 10.1067 6.93976 10.0533 6.84643 9.96L5.23309 8.34667C5.03976 8.15333 5.03976 7.83333 5.23309 7.64C5.42643 7.44666 5.74643 7.44666 5.93976 7.64L7.19976 8.9L10.0664 6.03333C10.2598 5.84 10.5798 5.84 10.7731 6.03333C10.9664 6.22667 10.9664 6.54666 10.7731 6.74Z" fill="#00997D"/>
</svg>
