<svg width="44" height="44" viewBox="0 0 44 44" fill="none" xmlns="http://www.w3.org/2000/svg">
<path d="M36.355 15.95L28.05 7.64497C26.3083 5.9033 23.9067 4.9683 21.45 5.09663L12.2833 5.53663C8.61666 5.70163 5.70166 8.61663 5.51833 12.265L5.07833 21.4316C4.96833 23.8883 5.88499 26.29 7.62666 28.0316L15.9317 36.3366C19.3417 39.7466 24.8783 39.7466 28.3067 36.3366L36.355 28.2883C39.7833 24.8966 39.7833 19.36 36.355 15.95ZM17.4167 22.6966C14.52 22.6966 12.1367 20.3316 12.1367 17.4166C12.1367 14.5016 14.52 12.1366 17.4167 12.1366C20.3133 12.1366 22.6967 14.5016 22.6967 17.4166C22.6967 20.3316 20.3133 22.6966 17.4167 22.6966ZM32.1383 24.805L24.805 32.1383C24.53 32.4133 24.1817 32.5416 23.8333 32.5416C23.485 32.5416 23.1367 32.4133 22.8617 32.1383C22.33 31.6066 22.33 30.7266 22.8617 30.195L30.195 22.8616C30.7267 22.33 31.6067 22.33 32.1383 22.8616C32.67 23.3933 32.67 24.2733 32.1383 24.805Z" fill="#D9D9D9"/>
</svg>
