<svg width="26" height="14" viewBox="0 0 26 14" fill="none" xmlns="http://www.w3.org/2000/svg">
<path d="M2.33317 4.08335V9.91669H21.4998V4.08335H2.33317ZM1.74984 2.91669H22.0832C22.2379 2.91669 22.3863 2.97815 22.4956 3.08754C22.605 3.19694 22.6665 3.34531 22.6665 3.50002V10.5C22.6665 10.6547 22.605 10.8031 22.4956 10.9125C22.3863 11.0219 22.2379 11.0834 22.0832 11.0834H1.74984C1.59513 11.0834 1.44675 11.0219 1.33736 10.9125C1.22796 10.8031 1.1665 10.6547 1.1665 10.5V3.50002C1.1665 3.34531 1.22796 3.19694 1.33736 3.08754C1.44675 2.97815 1.59513 2.91669 1.74984 2.91669ZM2.9165 4.66669H5.24984V9.33335H2.9165V4.66669ZM23.2498 5.25002H24.4165V8.75002H23.2498V5.25002Z" fill="#292D32"/>
</svg>
