<svg width="20" height="20" viewBox="0 0 20 20" fill="none" xmlns="http://www.w3.org/2000/svg">
<path d="M17.5998 5.81663L14.1832 2.39996C13.7832 1.99996 12.9832 1.66663 12.4165 1.66663H7.58317C7.0165 1.66663 6.2165 1.99996 5.8165 2.39996L2.39984 5.81663C1.99984 6.21663 1.6665 7.01663 1.6665 7.58329V12.4166C1.6665 12.9833 1.99984 13.7833 2.39984 14.1833L5.8165 17.6C6.2165 18 7.0165 18.3333 7.58317 18.3333H12.4165C12.9832 18.3333 13.7832 18 14.1832 17.6L17.5998 14.1833C17.9998 13.7833 18.3332 12.9833 18.3332 12.4166V7.58329C18.3332 7.01663 17.9998 6.21663 17.5998 5.81663ZM13.3582 12.475C13.5998 12.7166 13.5998 13.1166 13.3582 13.3583C13.2332 13.4833 13.0748 13.5416 12.9165 13.5416C12.7582 13.5416 12.5998 13.4833 12.4748 13.3583L9.99984 10.8833L7.52484 13.3583C7.39984 13.4833 7.2415 13.5416 7.08317 13.5416C6.92484 13.5416 6.7665 13.4833 6.6415 13.3583C6.39984 13.1166 6.39984 12.7166 6.6415 12.475L9.1165 9.99996L6.6415 7.52496C6.39984 7.28329 6.39984 6.88329 6.6415 6.64163C6.88317 6.39996 7.28317 6.39996 7.52484 6.64163L9.99984 9.11663L12.4748 6.64163C12.7165 6.39996 13.1165 6.39996 13.3582 6.64163C13.5998 6.88329 13.5998 7.28329 13.3582 7.52496L10.8832 9.99996L13.3582 12.475Z" fill="#EB3838"/>
</svg>
