<svg width="20" height="20" viewBox="0 0 20 20" fill="none" xmlns="http://www.w3.org/2000/svg">
<path d="M6.23328 15.2916L8.81661 17.2916C9.14994 17.6249 9.89994 17.7916 10.3999 17.7916H13.5666C14.5666 17.7916 15.6499 17.0416 15.8999 16.0416L17.8999 9.95822C18.3166 8.79156 17.5666 7.79156 16.3166 7.79156H12.9833C12.4833 7.79156 12.0666 7.37489 12.1499 6.79156L12.5666 4.12489C12.7333 3.37489 12.2333 2.54156 11.4833 2.29156C10.8166 2.04156 9.98328 2.37489 9.64994 2.87489L6.23328 7.95822" stroke="#292D32" stroke-width="1.5" stroke-miterlimit="10"/>
<path d="M1.98328 15.2917V7.12508C1.98328 5.95841 2.48328 5.54175 3.64994 5.54175H4.48328C5.64994 5.54175 6.14994 5.95841 6.14994 7.12508V15.2917C6.14994 16.4584 5.64994 16.8751 4.48328 16.8751H3.64994C2.48328 16.8751 1.98328 16.4584 1.98328 15.2917Z" stroke="#292D32" stroke-width="1.5" stroke-linecap="round" stroke-linejoin="round"/>
</svg>
