<svg width="20" height="20" viewBox="0 0 20 20" fill="none" xmlns="http://www.w3.org/2000/svg">
<path d="M10 1.6665V7.49984L11.6667 5.83317" stroke="#8D8D8D" stroke-width="1.5" stroke-linecap="round" stroke-linejoin="round"/>
<path d="M10 7.50016L8.33337 5.8335" stroke="#8D8D8D" stroke-width="1.5" stroke-linecap="round" stroke-linejoin="round"/>
<path d="M1.65002 10.8335H5.32502C5.64169 10.8335 5.92502 11.0085 6.06669 11.2918L7.04169 13.2418C7.32502 13.8085 7.90002 14.1668 8.53336 14.1668H11.475C12.1084 14.1668 12.6834 13.8085 12.9667 13.2418L13.9417 11.2918C14.0834 11.0085 14.375 10.8335 14.6834 10.8335H18.3167" stroke="#8D8D8D" stroke-width="1.5" stroke-linecap="round" stroke-linejoin="round"/>
<path d="M5.83329 3.44189C2.88329 3.87523 1.66663 5.60856 1.66663 9.16689V12.5002C1.66663 16.6669 3.33329 18.3336 7.49996 18.3336H12.5C16.6666 18.3336 18.3333 16.6669 18.3333 12.5002V9.16689C18.3333 5.60856 17.1166 3.87523 14.1666 3.44189" stroke="#8D8D8D" stroke-width="1.5" stroke-linecap="round" stroke-linejoin="round"/>
</svg>
