<svg width="20" height="20" viewBox="0 0 20 20" fill="none" xmlns="http://www.w3.org/2000/svg">
<path d="M3.67063 12.9386L7.44563 16.7136C8.99563 18.2636 11.5123 18.2636 13.0706 16.7136L16.729 13.0553C18.279 11.5053 18.279 8.98864 16.729 7.43031L12.9456 3.66364C12.154 2.87197 11.0623 2.44697 9.94563 2.50531L5.77896 2.70531C4.1123 2.78031 2.7873 4.10531 2.70396 5.76364L2.50396 9.93031C2.45396 11.0553 2.87896 12.147 3.67063 12.9386Z" stroke="#00997D" stroke-width="1.5" stroke-linecap="round" stroke-linejoin="round"/>
<path d="M8.11239 10.1886C9.26298 10.1886 10.1957 9.2559 10.1957 8.10531C10.1957 6.95471 9.26298 6.02197 8.11239 6.02197C6.96179 6.02197 6.02905 6.95471 6.02905 8.10531C6.02905 9.2559 6.96179 10.1886 8.11239 10.1886Z" stroke="#00997D" stroke-width="1.5" stroke-linecap="round"/>
<path d="M11.0291 14.3553L14.3624 11.022" stroke="#00997D" stroke-width="1.5" stroke-miterlimit="10" stroke-linecap="round" stroke-linejoin="round"/>
</svg>
