<svg width="272" height="152" viewBox="0 0 272 152" fill="none" xmlns="http://www.w3.org/2000/svg">
<path d="M271.189 50.2403L258.656 58.2615C256.484 59.7655 251.237 61.5702 247.627 56.7575C244.018 51.9448 241.778 49.0706 241.11 48.2351L214.54 3.61744C214.039 2.44769 212.434 0.509249 210.028 2.11348C207.622 3.71771 153.88 35.5349 127.31 51.243C125.806 52.2456 122.297 53.6493 120.292 51.243C118.286 48.8367 105.085 29.1848 98.7348 19.6597C98.0663 18.6571 96.1279 17.0529 93.7215 18.6571C91.3152 20.2613 56.958 41.0495 40.0801 51.243C38.242 52.747 33.4627 56.0557 29.0511 57.2589C24.6394 58.462 22.5339 59.097 22.0326 59.2641C21.0299 59.7655 19.1249 61.2694 19.5259 63.2747C19.927 65.28 29.3852 96.8633 34.0642 112.404C34.5655 113.908 34.9666 117.117 32.5603 117.919C30.1539 118.721 21.197 121.595 17.0193 122.932C16.0166 123.266 14.1116 124.536 14.5127 126.943C14.9137 129.349 15.014 130.953 15.0139 131.454C15.0139 132.457 15.5153 134.863 17.5206 136.468C19.5258 138.072 20.0272 140.478 20.0272 141.481C19.8601 142.651 18.2224 145.291 13.0087 146.494C7.79491 147.697 2.48091 149.335 0.475619 150.003" stroke="#608BFB" stroke-width="3"/>
</svg>
