<svg width="20" height="20" viewBox="0 0 20 20" fill="none" xmlns="http://www.w3.org/2000/svg">
<path d="M7.1416 12.725L12.5916 7.27502" stroke="#292D32" stroke-width="1.5" stroke-linecap="round" stroke-linejoin="round"/>
<path d="M7.48326 8.64167C8.04935 8.64167 8.50824 8.18278 8.50824 7.61668C8.50824 7.05059 8.04935 6.59167 7.48326 6.59167C6.91717 6.59167 6.45825 7.05059 6.45825 7.61668C6.45825 8.18278 6.91717 8.64167 7.48326 8.64167Z" stroke="#292D32" stroke-width="1.5" stroke-linecap="round" stroke-linejoin="round"/>
<path d="M12.9334 13.4084C13.4995 13.4084 13.9584 12.9495 13.9584 12.3834C13.9584 11.8173 13.4995 11.3584 12.9334 11.3584C12.3673 11.3584 11.9084 11.8173 11.9084 12.3834C11.9084 12.9495 12.3673 13.4084 12.9334 13.4084Z" stroke="#292D32" stroke-width="1.5" stroke-linecap="round" stroke-linejoin="round"/>
<path d="M10.0001 18.3333C14.6025 18.3333 18.3334 14.6023 18.3334 9.99996C18.3334 5.39759 14.6025 1.66663 10.0001 1.66663C5.39771 1.66663 1.66675 5.39759 1.66675 9.99996C1.66675 14.6023 5.39771 18.3333 10.0001 18.3333Z" stroke="#292D32" stroke-width="1.5" stroke-linecap="round" stroke-linejoin="round"/>
</svg>
