<svg width="20" height="20" viewBox="0 0 20 20" fill="none" xmlns="http://www.w3.org/2000/svg">
<path d="M10.0001 1.66669C5.40841 1.66669 1.66675 5.40835 1.66675 10C1.66675 14.5917 5.40841 18.3334 10.0001 18.3334C14.5917 18.3334 18.3334 14.5917 18.3334 10C18.3334 5.40835 14.5917 1.66669 10.0001 1.66669ZM13.9834 8.08335L9.25841 12.8084C9.14175 12.925 8.98341 12.9917 8.81675 12.9917C8.65008 12.9917 8.49175 12.925 8.37508 12.8084L6.01675 10.45C5.77508 10.2084 5.77508 9.80835 6.01675 9.56669C6.25841 9.32502 6.65841 9.32502 6.90008 9.56669L8.81675 11.4834L13.1001 7.20002C13.3417 6.95835 13.7417 6.95835 13.9834 7.20002C14.2251 7.44169 14.2251 7.83335 13.9834 8.08335Z" fill="#00997D"/>
</svg>
