<svg width="14" height="14" viewBox="0 0 14 14" fill="none" xmlns="http://www.w3.org/2000/svg">
<g clip-path="url(#clip0_69_826)">
<path d="M0.402344 4.08159C2.26848 2.56978 4.59817 1.74646 6.99984 1.75001C9.49943 1.75001 11.7948 2.62326 13.5973 4.08159L12.4978 5.44251C10.9426 4.18282 9.00118 3.49689 6.99984 3.50001C4.91734 3.50001 3.00401 4.22801 1.50193 5.44251L0.402344 4.08159ZM2.23459 6.35076C3.58244 5.25876 5.26515 4.66408 6.99984 4.66668C8.80468 4.66668 10.4625 5.29726 11.7651 6.35018L10.6655 7.71168C9.62863 6.8718 8.3342 6.41451 6.99984 6.41668C5.61151 6.41668 4.33634 6.90201 3.33418 7.71168L2.23459 6.35018V6.35076ZM4.06743 8.61993C4.89684 7.94787 5.93233 7.58183 6.99984 7.58335C8.11051 7.58335 9.13076 7.97126 9.93226 8.61935L8.83268 9.98085C8.31421 9.56095 7.66702 9.33231 6.99984 9.33335C6.33267 9.33231 5.68548 9.56095 5.16701 9.98085L4.06743 8.61935V8.61993ZM5.90026 10.8891C6.21121 10.6369 6.5995 10.4995 6.99984 10.5C7.41634 10.5 7.79901 10.6458 8.09943 10.8885L6.99984 12.25L5.90026 10.8885V10.8891Z" fill="#292D32"/>
</g>
<defs>
<clipPath id="clip0_69_826">
<rect width="14" height="14" fill="white"/>
</clipPath>
</defs>
</svg>
