<svg width="16" height="16" viewBox="0 0 16 16" fill="none" xmlns="http://www.w3.org/2000/svg">
<path d="M13.0068 3.90004L9.04678 1.61337C8.40011 1.24004 7.60011 1.24004 6.94678 1.61337L2.99344 3.90004C2.34678 4.27337 1.94678 4.96671 1.94678 5.72004V10.28C1.94678 11.0267 2.34678 11.72 2.99344 12.1L6.95344 14.3867C7.60011 14.76 8.40011 14.76 9.05344 14.3867L13.0134 12.1C13.6601 11.7267 14.0601 11.0334 14.0601 10.28V5.72004C14.0534 4.96671 13.6534 4.28004 13.0068 3.90004ZM8.00011 4.89337C8.86011 4.89337 9.55344 5.58671 9.55344 6.44671C9.55344 7.30671 8.86011 8.00004 8.00011 8.00004C7.14011 8.00004 6.44678 7.30671 6.44678 6.44671C6.44678 5.59337 7.14011 4.89337 8.00011 4.89337ZM9.78678 11.1067H6.21344C5.67344 11.1067 5.36011 10.5067 5.66011 10.06C6.11344 9.38671 6.99344 8.93337 8.00011 8.93337C9.00678 8.93337 9.88678 9.38671 10.3401 10.06C10.6401 10.5 10.3201 11.1067 9.78678 11.1067Z" fill="white"/>
</svg>
