<svg width="30" height="30" viewBox="0 0 30 30" fill="none" xmlns="http://www.w3.org/2000/svg">
<path d="M15.15 15.975C15.0625 15.9625 14.95 15.9625 14.85 15.975C12.65 15.9 10.9 14.1 10.9 11.8875C10.9 9.62498 12.725 7.78748 15 7.78748C17.2625 7.78748 19.1 9.62498 19.1 11.8875C19.0875 14.1 17.35 15.9 15.15 15.975Z" stroke="#00997D" stroke-width="2" stroke-linecap="round" stroke-linejoin="round"/>
<path d="M23.4249 24.225C21.1999 26.2625 18.2499 27.5 15 27.5C11.75 27.5 8.79995 26.2625 6.57495 24.225C6.69995 23.05 7.44995 21.9 8.78745 21C12.2125 18.725 17.8124 18.725 21.2124 21C22.5499 21.9 23.2999 23.05 23.4249 24.225Z" stroke="#00997D" stroke-width="2" stroke-linecap="round" stroke-linejoin="round"/>
<path d="M15 27.5C21.9036 27.5 27.5 21.9036 27.5 15C27.5 8.09644 21.9036 2.5 15 2.5C8.09644 2.5 2.5 8.09644 2.5 15C2.5 21.9036 8.09644 27.5 15 27.5Z" stroke="#00997D" stroke-width="2" stroke-linecap="round" stroke-linejoin="round"/>
</svg>
