<svg width="20" height="20" viewBox="0 0 20 20" fill="none" xmlns="http://www.w3.org/2000/svg">
<path d="M7.62508 6.24164C7.15841 6.24164 6.79175 6.61664 6.79175 7.07497C6.79175 7.5333 7.16675 7.9083 7.62508 7.9083C8.08341 7.9083 8.45841 7.5333 8.45841 7.07497C8.45841 6.61664 8.08341 6.24164 7.62508 6.24164Z" fill="#00997D"/>
<path d="M17.8834 4.20002C17.1834 2.57502 15.6417 1.66669 13.4917 1.66669H6.50841C3.83341 1.66669 1.66675 3.83335 1.66675 6.50835V13.4917C1.66675 15.6417 2.57508 17.1834 4.20008 17.8834C4.35841 17.95 4.54175 17.9084 4.65842 17.7917L17.7917 4.65835C17.9167 4.53335 17.9584 4.35002 17.8834 4.20002ZM8.77508 10.2C8.45008 10.5167 8.02508 10.6667 7.60008 10.6667C7.17508 10.6667 6.75008 10.5084 6.42508 10.2C5.57508 9.40002 4.64175 8.12502 5.00008 6.60835C5.31675 5.23335 6.53341 4.61669 7.60008 4.61669C8.66675 4.61669 9.88342 5.23335 10.2001 6.61669C10.5501 8.12502 9.61675 9.40002 8.77508 10.2Z" fill="#00997D"/>
<path d="M16.2251 17.1083C16.4084 17.2916 16.3834 17.5916 16.1584 17.7166C15.4251 18.125 14.5334 18.3333 13.4917 18.3333H6.50841C6.26674 18.3333 6.16674 18.05 6.33341 17.8833L11.3667 12.85C11.5334 12.6833 11.7917 12.6833 11.9584 12.85L16.2251 17.1083Z" fill="#00997D"/>
<path d="M18.3332 6.50835V13.4917C18.3332 14.5333 18.1249 15.4333 17.7166 16.1583C17.5916 16.3833 17.2916 16.4 17.1082 16.225L12.8416 11.9583C12.6749 11.7917 12.6749 11.5333 12.8416 11.3667L17.8749 6.33335C18.0499 6.16668 18.3332 6.26668 18.3332 6.50835Z" fill="#00997D"/>
</svg>
