<svg width="20" height="20" viewBox="0 0 20 20" fill="none" xmlns="http://www.w3.org/2000/svg">
<path d="M5.51675 10.9C5.41333 10.9374 5.31942 10.9971 5.24165 11.0749C5.16389 11.1526 5.10417 11.2466 5.06675 11.35C5.00613 11.5014 4.99129 11.6673 5.02407 11.8271C5.05685 11.9869 5.13581 12.1336 5.25115 12.2489C5.36649 12.3643 5.51315 12.4432 5.67295 12.476C5.83274 12.5088 5.99864 12.4939 6.15008 12.4333C6.25107 12.3911 6.34408 12.3319 6.42508 12.2583C6.49869 12.1773 6.55788 12.0843 6.60008 11.9833C6.64673 11.8844 6.66956 11.776 6.66675 11.6666C6.66368 11.446 6.57736 11.2347 6.42508 11.075C6.30789 10.9593 6.15908 10.881 5.99743 10.8499C5.83577 10.8187 5.66851 10.8362 5.51675 10.9ZM16.4667 7.56664L15.3334 4.20831C15.1605 3.71934 14.8399 3.29623 14.4158 2.99761C13.9918 2.69899 13.4854 2.53965 12.9667 2.54164H7.03341C6.51478 2.53965 6.00837 2.69899 5.58433 2.99761C5.16029 3.29623 4.83962 3.71934 4.66675 4.20831L3.53341 7.59164C3.00035 7.73124 2.52834 8.04303 2.19077 8.47856C1.8532 8.91409 1.66898 9.44895 1.66675 9.99998V13.3333C1.6682 13.8491 1.82915 14.3518 2.12753 14.7725C2.42591 15.1933 2.84712 15.5114 3.33341 15.6833V16.6666C3.33341 16.8877 3.42121 17.0996 3.57749 17.2559C3.73377 17.4122 3.94573 17.5 4.16675 17.5C4.38776 17.5 4.59972 17.4122 4.756 17.2559C4.91228 17.0996 5.00008 16.8877 5.00008 16.6666V15.8333H15.0001V16.6666C15.0001 16.8877 15.0879 17.0996 15.2442 17.2559C15.4004 17.4122 15.6124 17.5 15.8334 17.5C16.0544 17.5 16.2664 17.4122 16.4227 17.2559C16.579 17.0996 16.6667 16.8877 16.6667 16.6666V15.6833C17.153 15.5114 17.5742 15.1933 17.8726 14.7725C18.171 14.3518 18.332 13.8491 18.3334 13.3333V9.99998C18.3312 9.44895 18.147 8.91409 17.8094 8.47856C17.4718 8.04303 16.9998 7.73124 16.4667 7.59164V7.56664ZM6.24175 4.73331C6.29765 4.56779 6.40416 4.42403 6.54622 4.32235C6.68828 4.22066 6.85871 4.16619 7.03341 4.16664H12.9667C13.1485 4.15716 13.3283 4.20742 13.4788 4.30974C13.6293 4.41206 13.7421 4.56083 13.8001 4.73331L14.6751 7.49998H5.32508L6.24175 4.73331ZM16.6667 13.3333C16.6667 13.5543 16.579 13.7663 16.4227 13.9226C16.2664 14.0788 16.0544 14.1666 15.8334 14.1666H4.16675C3.94573 14.1666 3.73377 14.0788 3.57749 13.9226C3.42121 13.7663 3.33341 13.5543 3.33341 13.3333V9.99998C3.33341 9.77896 3.42121 9.567 3.57749 9.41072C3.73377 9.25444 3.94573 9.16664 4.16675 9.16664H15.8334C16.0544 9.16664 16.2664 9.25444 16.4227 9.41072C16.579 9.567 16.6667 9.77896 16.6667 9.99998V13.3333ZM13.8501 10.9C13.7467 10.9374 13.6528 10.9971 13.575 11.0749C13.4972 11.1526 13.4375 11.2466 13.4001 11.35C13.3395 11.5014 13.3246 11.6673 13.3574 11.8271C13.3902 11.9869 13.4691 12.1336 13.5845 12.2489C13.6998 12.3643 13.8465 12.4432 14.0063 12.476C14.1661 12.5088 14.332 12.4939 14.4834 12.4333C14.5868 12.3959 14.6807 12.3362 14.7585 12.2584C14.8363 12.1806 14.896 12.0867 14.9334 11.9833C14.9801 11.8844 15.0029 11.776 15.0001 11.6666C14.997 11.446 14.9107 11.2347 14.7584 11.075C14.6412 10.9593 14.4924 10.881 14.3308 10.8499C14.1691 10.8187 14.0018 10.8362 13.8501 10.9ZM10.8334 10.8333H9.16675C8.94573 10.8333 8.73377 10.9211 8.57749 11.0774C8.42121 11.2337 8.33341 11.4456 8.33341 11.6666C8.33341 11.8877 8.42121 12.0996 8.57749 12.2559C8.73377 12.4122 8.94573 12.5 9.16675 12.5H10.8334C11.0544 12.5 11.2664 12.4122 11.4227 12.2559C11.579 12.0996 11.6667 11.8877 11.6667 11.6666C11.6667 11.4456 11.579 11.2337 11.4227 11.0774C11.2664 10.9211 11.0544 10.8333 10.8334 10.8333Z" fill="#292D32"/>
</svg>
