<svg width="20" height="20" viewBox="0 0 20 20" fill="none" xmlns="http://www.w3.org/2000/svg">
<path d="M10 13.5417L10 9.16675" stroke="#292D32" stroke-width="1.5" stroke-linecap="round" stroke-linejoin="round"/>
<path d="M2.43349 12.8499L2.43349 7.14992C2.43349 6.21658 2.9335 5.34988 3.74183 4.87488L8.69183 2.01656C9.50017 1.54989 10.5002 1.54989 11.3169 2.01656L16.2669 4.87488C17.0752 5.34155 17.5752 6.20825 17.5752 7.14992L17.5752 12.8499C17.5752 13.7832 17.0752 14.6499 16.2669 15.1249L11.3169 17.9833C10.5085 18.4499 9.5085 18.4499 8.69183 17.9833L3.74183 15.1249C2.9335 14.6499 2.43349 13.7916 2.43349 12.8499Z" stroke="#292D32" stroke-width="1.5" stroke-linecap="round" stroke-linejoin="round"/>
<path d="M10 6.5L10 6.41667" stroke="#292D32" stroke-width="2" stroke-linecap="round" stroke-linejoin="round"/>
</svg>
