<svg width="121" height="37" viewBox="0 0 121 37" fill="none" xmlns="http://www.w3.org/2000/svg">
<path d="M0 0.451033H13.9199C15.8595 0.451033 17.7992 0.958513 19.6247 1.91708C21.5073 2.87566 22.9335 4.28532 23.9604 6.08969C24.9873 7.89406 25.5007 9.75482 25.5007 11.672C25.5007 13.3072 25.1584 14.886 24.4739 16.4084C23.7893 17.8745 22.9335 19.0586 21.9067 19.9044C20.8798 20.7502 19.91 21.3705 19.0542 21.7088L27.7256 35.8054H20.4234L12.7789 23.2312H12.6648H6.38944V35.8054H0V0.451033ZM13.2353 17.5362C15.0038 17.5362 16.373 16.9723 17.5139 15.901C18.6549 14.8296 19.1683 13.4199 19.1683 11.7284C19.1683 10.9953 18.9972 10.1495 18.6549 9.30373C18.3126 8.40154 17.6851 7.66852 16.8293 7.04826C15.9166 6.42801 14.9467 6.14608 13.8058 6.14608H6.38944V17.5362H13.2353Z" fill="white"/>
<path d="M31.605 6.14614C30.8634 5.41311 30.5211 4.56731 30.5211 3.60874C30.5211 2.65017 30.8634 1.80437 31.605 1.07135C32.3467 0.33832 33.2024 0 34.1722 0C35.142 0 35.9978 0.33832 36.7394 1.07135C37.481 1.80437 37.8233 2.65017 37.8233 3.60874C37.8233 4.56731 37.481 5.41311 36.7394 6.14614C35.9978 6.87916 35.142 7.21748 34.1722 7.21748C33.2024 7.21748 32.3467 6.87916 31.605 6.14614ZM31.0916 10.206H37.2528V28.1933C37.2528 29.1519 37.3669 29.8285 37.6522 30.2232C37.9374 30.6743 38.3938 30.8435 39.0213 30.8435L40.1053 30.7307V35.8619C39.4777 36.1438 38.4509 36.2566 37.0246 36.2566C33.0312 36.2566 31.0916 34.1139 31.0916 29.7721V10.206Z" fill="white"/>
<path d="M43.1858 17.8181C43.8134 16.1829 44.7262 14.7732 45.9242 13.5327C47.1222 12.2922 48.4914 11.39 50.0887 10.7134C51.6861 10.0368 53.3405 9.69843 55.1661 9.69843C57.2198 9.69843 58.9883 10.0931 60.4716 10.9389C61.9548 11.7283 62.9247 12.7433 63.4381 13.9838V0.451033H69.5423V28.0805C69.5423 29.1518 69.7135 29.8848 69.9987 30.3923C70.2839 30.8434 70.7974 31.1253 71.482 31.1253L72.737 31.0126V35.9182C72.0524 36.2001 71.0256 36.3129 69.7135 36.3129C68.2302 36.3129 67.0322 36.031 66.1194 35.5235C64.9784 34.7905 64.2938 33.7755 64.0086 32.4222C63.2099 33.6063 62.0689 34.5649 60.5857 35.2979C59.1024 36.031 57.2769 36.4257 55.1661 36.4257C53.3975 36.4257 51.6861 36.0874 50.0887 35.4107C48.4914 34.7341 47.1222 33.7755 45.9242 32.5914C44.7262 31.3509 43.8134 29.9412 43.1858 28.306C42.5583 26.6708 42.216 24.9228 42.216 23.0621C42.216 21.2013 42.5013 19.4533 43.1858 17.8181ZM48.6625 25.5431C48.8907 26.4452 49.3471 27.2347 49.9746 28.0241C50.6022 28.8135 51.4008 29.4337 52.4277 29.9976C53.4546 30.5615 54.5956 30.787 55.9647 30.787C56.7634 30.787 57.6191 30.6742 58.5319 30.3923C59.4447 30.1104 60.3004 29.6593 61.0991 29.039C61.8978 28.4188 62.5253 27.573 63.0958 26.558C63.6663 25.5431 63.8945 24.3589 63.8945 23.0057C63.8945 22.2163 63.7804 21.3705 63.4952 20.4683C63.2099 19.5661 62.7535 18.7767 62.126 17.9873C61.4985 17.1978 60.6427 16.5776 59.6158 16.0137C58.589 15.4499 57.391 15.2243 56.0218 15.2243C55.2231 15.2243 54.4244 15.3371 53.5687 15.619C52.713 15.901 51.9143 16.352 51.1156 16.9723C50.3169 17.5926 49.6894 18.4384 49.176 19.4533C48.6625 20.4683 48.3773 21.6524 48.3773 23.0057C48.3202 23.8515 48.4343 24.6973 48.6625 25.5431Z" fill="white"/>
<path d="M74.9047 23.0057C74.9047 21.0322 75.247 19.1714 75.9316 17.4798C76.6162 15.7882 77.586 14.3786 78.784 13.1944C79.982 12.0103 81.4653 11.1081 83.1197 10.4315C84.7741 9.81124 86.5997 9.47293 88.4823 9.47293C90.3078 9.47293 92.0763 9.81124 93.6167 10.4879C95.157 11.1645 96.5832 12.0667 97.7242 13.2508C98.8651 14.4349 99.7209 15.7882 100.348 17.367C100.976 18.9459 101.261 20.5811 101.261 22.3855L101.147 24.5281H81.0089C81.123 26.5581 81.8647 28.1933 83.2909 29.3774C84.7171 30.6179 86.5426 31.1818 88.8246 31.1818C89.9656 31.1818 91.1065 31.0126 92.1904 30.6743C93.3314 30.336 94.5294 29.4902 95.7845 28.2497L99.4927 31.802C96.5832 34.8469 92.9321 36.3693 88.5964 36.3693C86.5997 36.3693 84.7741 36.031 83.0627 35.4108C81.3512 34.7905 79.925 33.8883 78.6699 32.7606C77.4719 31.6329 76.5021 30.2232 75.8745 28.588C75.247 26.9528 74.8477 25.1484 74.8477 23.1749V23.0057H74.9047ZM94.9858 20.2991C94.9858 18.7767 94.3583 17.4798 93.0462 16.3521C91.7911 15.2807 90.2508 14.7169 88.4252 14.7169C87.5125 14.7169 86.5426 14.886 85.4587 15.2807C84.3748 15.6754 83.405 16.2957 82.5492 17.2543C81.6935 18.2128 81.2371 19.2278 81.123 20.2991H94.9858Z" fill="white"/>
<path d="M105.369 10.206H111.473V14.0403C112.101 12.7434 113.07 11.672 114.439 10.8826C115.809 10.0932 117.406 9.6985 119.175 9.6985C119.916 9.6985 120.487 9.75489 121 9.86766V15.7319C120.201 15.5627 119.346 15.4499 118.433 15.4499C116.322 15.4499 114.611 16.0702 113.356 17.3107C112.101 18.5512 111.473 20.1864 111.473 22.3291V35.7491H105.369V10.206Z" fill="white"/>
</svg>
