<svg width="20" height="20" viewBox="0 0 20 20" fill="none" xmlns="http://www.w3.org/2000/svg">
<path d="M16.6417 8.33337H3.30835V15C3.30835 17.5 4.14168 18.3334 6.64168 18.3334H13.3083C15.8083 18.3334 16.6417 17.5 16.6417 15V8.33337Z" stroke="#292D32" stroke-width="1.5" stroke-miterlimit="10" stroke-linecap="round" stroke-linejoin="round"/>
<path d="M17.9167 5.83329V6.66663C17.9167 7.58329 17.475 8.33329 16.25 8.33329H3.75004C2.47504 8.33329 2.08337 7.58329 2.08337 6.66663V5.83329C2.08337 4.91663 2.47504 4.16663 3.75004 4.16663H16.25C17.475 4.16663 17.9167 4.91663 17.9167 5.83329Z" stroke="#292D32" stroke-width="1.5" stroke-miterlimit="10" stroke-linecap="round" stroke-linejoin="round"/>
<path d="M9.69998 4.16662H5.09998C4.81665 3.85828 4.82498 3.38328 5.12498 3.08328L6.30832 1.89995C6.61665 1.59162 7.12498 1.59162 7.43332 1.89995L9.69998 4.16662Z" stroke="#292D32" stroke-width="1.5" stroke-miterlimit="10" stroke-linecap="round" stroke-linejoin="round"/>
<path d="M14.8916 4.16662H10.2916L12.5583 1.89995C12.8666 1.59162 13.375 1.59162 13.6833 1.89995L14.8666 3.08328C15.1666 3.38328 15.175 3.85828 14.8916 4.16662Z" stroke="#292D32" stroke-width="1.5" stroke-miterlimit="10" stroke-linecap="round" stroke-linejoin="round"/>
<path d="M7.44995 8.33337V12.6167C7.44995 13.2834 8.18328 13.675 8.74162 13.3167L9.52495 12.8C9.80829 12.6167 10.1666 12.6167 10.4416 12.8L11.1833 13.3C11.7333 13.6667 12.475 13.275 12.475 12.6084V8.33337H7.44995Z" stroke="#292D32" stroke-width="1.5" stroke-miterlimit="10" stroke-linecap="round" stroke-linejoin="round"/>
</svg>
