<svg width="18" height="18" viewBox="0 0 18 18" fill="none" xmlns="http://www.w3.org/2000/svg">
<g clip-path="url(#clip0_75_1072)">
<path d="M5.77383 0.00454495C5.90248 0.0105949 6.02729 0.0503027 6.13583 0.119708C6.39428 0.29015 6.55112 0.530841 6.54537 0.887462C6.5423 1.06635 6.54537 1.24524 6.54537 1.42489V1.64063H6.7605C8.01674 1.64063 9.27311 1.64063 10.5296 1.64063C11.0055 1.64063 11.318 1.87096 11.4185 2.29322C11.5266 2.7462 11.2099 3.2318 10.7432 3.26635C10.2673 3.30128 9.78798 3.28362 9.30979 3.28861C9.20242 3.28861 9.09466 3.28861 8.97004 3.28861C8.87417 5.34543 8.36301 7.23794 6.93075 8.8437C7.5443 9.12662 8.13101 9.39994 8.72078 9.66597C8.88836 9.74274 9.0659 9.79226 9.23923 9.8579C9.69019 10.0295 9.91222 10.4721 9.76267 10.9021C9.60928 11.3431 9.15986 11.5592 8.69586 11.4053C7.69816 11.075 6.74276 10.6283 5.84938 10.0744C5.71171 9.98919 5.62236 9.97883 5.48201 10.0744C4.63838 10.6579 3.71461 11.0813 2.74367 11.4042C2.27929 11.5577 1.836 11.3443 1.67916 10.899C1.52577 10.464 1.75585 10.018 2.2233 9.85291C2.92044 9.60685 3.60034 9.32316 4.22961 8.93545C3.83809 8.55579 3.42701 8.20224 3.07038 7.80032C2.62249 7.29591 2.20604 6.76385 1.8011 6.2222C1.50851 5.83218 1.60936 5.32355 1.99053 5.05829C2.3717 4.79303 2.86714 4.88439 3.14669 5.29399C3.78774 6.23376 4.56469 7.07299 5.4521 7.7842C5.48661 7.81184 5.5219 7.83909 5.55488 7.8652C6.49246 7.18919 7.41316 4.79418 7.30502 3.28746H7.06919C5.02198 3.28746 2.97477 3.28746 0.927558 3.28746C0.473148 3.28746 0.166757 3.09015 0.0455807 2.72739C-0.120844 2.23487 0.202806 1.69399 0.720105 1.66059C1.2374 1.62719 1.76543 1.64255 2.2881 1.6414C3.09799 1.63948 3.90788 1.6414 4.71814 1.6414C4.77413 1.6414 4.83011 1.63526 4.90489 1.63103C4.90489 1.42566 4.91908 1.22835 4.90221 1.03372C4.85926 0.539286 5.02914 0.107424 5.51576 0.0129903C5.60108 -0.000778052 5.6878 -0.00361602 5.77383 0.00454495Z" fill="#292D32"/>
<path d="M18 17.1615C17.9732 17.5389 17.7201 17.8759 17.3711 17.97C16.9938 18.0721 16.6111 17.9093 16.4221 17.5439C16.1325 16.9846 15.8469 16.4237 15.5784 15.8548C15.4714 15.6245 15.3484 15.5389 15.0818 15.5424C13.6922 15.5592 12.3021 15.5519 10.9124 15.545C10.759 15.545 10.6896 15.5938 10.6248 15.7278C10.3305 16.3353 10.029 16.9394 9.72019 17.54C9.54111 17.889 9.21132 18.0448 8.82824 17.9823C8.66002 17.9548 8.50549 17.8728 8.38845 17.7487C8.27141 17.6247 8.19837 17.4656 8.18056 17.2959C8.16929 17.1008 8.20962 16.9061 8.29752 16.7316C9.15533 14.9907 10.0262 13.256 10.8932 11.5193C11.3568 10.5915 11.8258 9.66634 12.2818 8.73467C12.4451 8.40032 12.699 8.22258 13.0621 8.21951C13.4348 8.21682 13.6895 8.403 13.8574 8.7412C15.1758 11.391 16.4968 14.0397 17.8206 16.6875C17.8969 16.836 17.9414 17.0022 18 17.1615ZM13.0683 10.8406L11.5497 13.8821H14.5872C14.0787 12.8644 13.5825 11.8698 13.0683 10.8406Z" fill="#292D32"/>
</g>
<defs>
<clipPath id="clip0_75_1072">
<rect width="18" height="18" fill="white"/>
</clipPath>
</defs>
</svg>
