<svg width="18" height="17" viewBox="0 0 18 17" fill="none" xmlns="http://www.w3.org/2000/svg">
<g clip-path="url(#clip0_70_1446)">
<path d="M0.686596 12.5654C1.5911 13.1489 2.53498 13.4592 3.50347 13.5988C6.57821 14.042 9.90411 12.7819 12.9788 13.2251C13.75 13.3363 14.5052 13.5567 15.238 13.9341C15.3204 13.9775 15.4058 14.0038 15.4899 14.0159C15.9209 14.078 16.3482 13.7665 16.4207 13.2634L17.6704 4.59302C17.7201 4.24828 17.5858 3.89766 17.3146 3.7225C16.4108 3.13995 15.4643 2.83063 14.4972 2.69123C11.4224 2.24805 8.0993 3.50849 5.02178 3.06491C4.2506 2.95375 3.49544 2.73337 2.76265 2.35588C2.67967 2.31255 2.5942 2.28628 2.50992 2.27414C2.07975 2.21199 1.65236 2.52404 1.57952 3.0294L0.330519 11.6948C0.28079 12.0398 0.414431 12.3901 0.686596 12.5654ZM11.2203 8.465C11.0116 9.91333 9.84834 10.9441 8.6473 10.771C7.44627 10.5979 6.62148 9.28056 6.83024 7.83223C7.03899 6.38389 8.20224 5.35309 9.40327 5.5262C10.6043 5.69932 11.429 7.01721 11.2203 8.465Z" fill="#009950"/>
</g>
<defs>
<clipPath id="clip0_70_1446">
<rect width="16" height="14" fill="white" transform="translate(15.9843 16.2901) scale(1.00934) rotate(-171.798)"/>
</clipPath>
</defs>
</svg>
